<?xml version="1.0" encoding="UTF-8" standalone="no"?>
<!DOCTYPE svg PUBLIC "-//W3C//DTD SVG 1.1//EN"
 "http://www.w3.org/Graphics/SVG/1.1/DTD/svg11.dtd">
<!-- Generated by graphviz version 2.46.0 (20210118.1747)
 -->
<!-- Title: NetTcp Pages: 1 -->
<svg width="1423pt" height="509pt"
 viewBox="0.00 0.00 1423.10 509.43" xmlns="http://www.w3.org/2000/svg" xmlns:xlink="http://www.w3.org/1999/xlink">
<g id="graph0" class="graph" transform="scale(1 1) rotate(0) translate(4 505.43)">
<title>NetTcp</title>
<g id="clust1" class="cluster">
<title>clusterLegend</title>
<polygon fill="transparent" stroke="black" points="8,-235 8,-493.43 521,-493.43 521,-235 8,-235"/>
<text text-anchor="middle" x="264.5" y="-478.23" font-family="Times New Roman,serif" font-size="14.00">Legend</text>
</g>
<!-- legendNode0 -->
<g id="node1" class="node">
<title>legendNode0</title>
<polygon fill="white" stroke="black" points="274.98,-426.48 277.62,-426.58 280.23,-426.73 282.8,-426.93 285.32,-427.17 287.79,-427.46 290.18,-427.8 292.5,-428.18 294.74,-428.61 296.87,-429.08 298.91,-429.59 300.84,-430.15 302.65,-430.74 304.34,-431.37 305.9,-432.04 307.33,-432.74 308.63,-433.47 309.79,-434.24 310.81,-435.03 311.69,-435.84 312.43,-436.68 313.03,-437.54 313.48,-438.42 313.8,-439.32 313.99,-440.23 314.04,-441.15 313.95,-442.08 313.75,-443.02 313.41,-443.96 312.97,-444.91 312.4,-445.85 311.73,-446.78 310.96,-447.72 310.09,-448.64 309.13,-449.55 308.08,-450.44 306.96,-451.32 305.76,-452.19 304.49,-453.03 303.16,-453.84 301.78,-454.63 300.34,-455.4 298.86,-456.13 297.33,-456.83 295.77,-457.5 294.17,-458.13 292.55,-458.72 290.9,-459.27 289.23,-459.79 287.54,-460.26 285.84,-460.69 284.12,-461.07 282.39,-461.41 280.65,-461.7 278.91,-461.94 277.15,-462.14 275.4,-462.29 273.64,-462.38 271.88,-462.43 270.12,-462.43 268.36,-462.38 266.6,-462.29 264.85,-462.14 263.09,-461.94 261.35,-461.7 259.61,-461.41 257.88,-461.07 256.16,-460.69 254.46,-460.26 252.77,-459.79 251.1,-459.27 249.45,-458.72 247.83,-458.13 246.23,-457.5 244.67,-456.83 243.14,-456.13 241.66,-455.4 240.22,-454.63 238.84,-453.84 237.51,-453.03 236.24,-452.19 235.04,-451.32 233.92,-450.44 232.87,-449.55 231.91,-448.64 231.04,-447.72 230.27,-446.78 229.6,-445.85 229.03,-444.91 228.59,-443.96 228.25,-443.02 228.05,-442.08 227.96,-441.15 228.01,-440.23 228.2,-439.32 228.52,-438.42 228.97,-437.54 229.57,-436.68 230.31,-435.84 231.19,-435.03 232.21,-434.24 233.37,-433.47 234.67,-432.74 236.1,-432.04 237.66,-431.37 239.35,-430.74 241.16,-430.15 243.09,-429.59 245.13,-429.08 247.26,-428.61 249.5,-428.18 251.82,-427.8 254.21,-427.46 256.68,-427.17 259.2,-426.93 261.77,-426.73 264.38,-426.58 267.02,-426.48 269.67,-426.43 272.33,-426.43 274.98,-426.48"/>
<text text-anchor="middle" x="271" y="-441.33" font-family="Times New Roman,serif" font-size="12.00">Executable</text>
</g>
<!-- legendNode1 -->
<g id="node2" class="node">
<title>legendNode1</title>
<polygon fill="white" stroke="black" points="119.94,-352.26 119.94,-367.17 89.52,-377.72 46.48,-377.72 16.06,-367.17 16.06,-352.26 46.48,-341.72 89.52,-341.72 119.94,-352.26"/>
<text text-anchor="middle" x="68" y="-356.62" font-family="Times New Roman,serif" font-size="12.00">Static Library</text>
</g>
<!-- legendNode0&#45;&gt;legendNode1 -->
<g id="edge1" class="edge">
<title>legendNode0&#45;&gt;legendNode1</title>
<path fill="none" stroke="black" d="M237.14,-431.39C208.19,-420.89 165.53,-404.95 129,-389.43 121.65,-386.31 113.89,-382.82 106.46,-379.37"/>
<polygon fill="black" stroke="black" points="107.81,-376.14 97.27,-375.05 104.83,-382.47 107.81,-376.14"/>
</g>
<!-- legendNode2 -->
<g id="node3" class="node">
<title>legendNode2</title>
<polygon fill="white" stroke="black" points="255.76,-352.26 255.76,-367.17 222.51,-377.72 175.49,-377.72 142.24,-367.17 142.24,-352.26 175.49,-341.72 222.51,-341.72 255.76,-352.26"/>
<polygon fill="none" stroke="black" points="259.77,-349.34 259.77,-370.1 223.13,-381.72 174.87,-381.72 138.23,-370.1 138.23,-349.34 174.87,-337.72 223.13,-337.72 259.77,-349.34"/>
<text text-anchor="middle" x="199" y="-356.62" font-family="Times New Roman,serif" font-size="12.00">Shared Library</text>
</g>
<!-- legendNode0&#45;&gt;legendNode2 -->
<g id="edge2" class="edge">
<title>legendNode0&#45;&gt;legendNode2</title>
<path fill="none" stroke="black" d="M256.78,-427.09C247.41,-416.33 234.89,-401.95 223.9,-389.33"/>
<polygon fill="black" stroke="black" points="226.51,-386.99 217.3,-381.74 221.23,-391.58 226.51,-386.99"/>
</g>
<!-- legendNode3 -->
<g id="node4" class="node">
<title>legendNode3</title>
<polygon fill="white" stroke="black" points="402.75,-352.26 402.75,-367.17 368.34,-377.72 319.66,-377.72 285.25,-367.17 285.25,-352.26 319.66,-341.72 368.34,-341.72 402.75,-352.26"/>
<polygon fill="none" stroke="black" points="406.76,-349.3 406.76,-370.13 368.94,-381.72 319.06,-381.72 281.24,-370.13 281.24,-349.3 319.06,-337.72 368.94,-337.72 406.76,-349.3"/>
<polygon fill="none" stroke="black" points="410.77,-346.35 410.77,-373.09 369.54,-385.72 318.46,-385.72 277.23,-373.09 277.23,-346.35 318.46,-333.72 369.54,-333.72 410.77,-346.35"/>
<text text-anchor="middle" x="344" y="-356.62" font-family="Times New Roman,serif" font-size="12.00">Module Library</text>
</g>
<!-- legendNode0&#45;&gt;legendNode3 -->
<!-- legendNode7 -->
<g id="node8" class="node">
<title>legendNode7</title>
<polygon fill="white" stroke="black" points="513,-377.72 429,-377.72 429,-341.72 513,-341.72 513,-377.72"/>
<text text-anchor="middle" x="471" y="-356.62" font-family="Times New Roman,serif" font-size="12.00">Custom Target</text>
</g>
<!-- legendNode0&#45;&gt;legendNode7 -->
<!-- legendNode4 -->
<g id="node5" class="node">
<title>legendNode4</title>
<polygon fill="white" stroke="black" points="156.01,-266.56 86,-279 15.99,-266.56 42.73,-246.44 129.27,-246.44 156.01,-266.56"/>
<text text-anchor="middle" x="86" y="-257.9" font-family="Times New Roman,serif" font-size="12.00">Interface Library</text>
</g>
<!-- legendNode1&#45;&gt;legendNode4 -->
<g id="edge4" class="edge">
<title>legendNode1&#45;&gt;legendNode4</title>
<path fill="none" stroke="black" stroke-dasharray="5,2" d="M71.22,-341.43C73.94,-326.81 77.88,-305.62 81.01,-288.8"/>
<polygon fill="black" stroke="black" points="84.54,-288.97 82.93,-278.5 77.66,-287.69 84.54,-288.97"/>
<text text-anchor="middle" x="104.5" y="-300.8" font-family="Times New Roman,serif" font-size="14.00">Interface</text>
</g>
<!-- legendNode5 -->
<g id="node6" class="node">
<title>legendNode5</title>
<polygon fill="white" stroke="black" points="293.92,-261 263.96,-279 204.04,-279 174.08,-261 204.04,-243 263.96,-243 293.92,-261"/>
<text text-anchor="middle" x="234" y="-257.9" font-family="Times New Roman,serif" font-size="12.00">Object Library</text>
</g>
<!-- legendNode2&#45;&gt;legendNode5 -->
<g id="edge5" class="edge">
<title>legendNode2&#45;&gt;legendNode5</title>
<path fill="none" stroke="black" stroke-dasharray="1,5" d="M206.77,-337.25C211.96,-322.92 218.82,-303.96 224.35,-288.66"/>
<polygon fill="black" stroke="black" points="227.66,-289.81 227.77,-279.22 221.08,-287.43 227.66,-289.81"/>
<text text-anchor="middle" x="240.5" y="-300.8" font-family="Times New Roman,serif" font-size="14.00">Private</text>
</g>
<!-- legendNode6 -->
<g id="node7" class="node">
<title>legendNode6</title>
<polygon fill="white" stroke="black" points="444.05,-256.99 430.97,-272.22 378,-279 325.03,-272.22 311.95,-256.99 348.6,-244.78 407.4,-244.78 444.05,-256.99"/>
<text text-anchor="middle" x="378" y="-257.9" font-family="Times New Roman,serif" font-size="12.00">Unknown Library</text>
</g>
<!-- legendNode3&#45;&gt;legendNode6 -->
<g id="edge6" class="edge">
<title>legendNode3&#45;&gt;legendNode6</title>
<path fill="none" stroke="black" d="M352.84,-333.56C357.75,-319.6 363.85,-302.25 368.81,-288.14"/>
<polygon fill="black" stroke="black" points="372.18,-289.12 372.19,-278.52 365.57,-286.8 372.18,-289.12"/>
</g>
<!-- node0 -->
<g id="node9" class="node">
<title>node0</title>
<polygon fill="white" stroke="black" points="787.8,-436.98 787.8,-451.89 767.41,-462.43 738.59,-462.43 718.2,-451.89 718.2,-436.98 738.59,-426.43 767.41,-426.43 787.8,-436.98"/>
<text text-anchor="middle" x="753" y="-441.33" font-family="Times New Roman,serif" font-size="12.00">NetTcp</text>
</g>
<!-- node1 -->
<g id="node10" class="node">
<title>node1</title>
<polygon fill="white" stroke="black" points="686.97,-352.26 686.97,-367.17 669.41,-377.72 644.59,-377.72 627.03,-367.17 627.03,-352.26 644.59,-341.72 669.41,-341.72 686.97,-352.26"/>
<text text-anchor="middle" x="657" y="-356.62" font-family="Times New Roman,serif" font-size="12.00">QOlm</text>
</g>
<!-- node0&#45;&gt;node1 -->
<g id="edge16" class="edge">
<title>node0&#45;&gt;node1</title>
<path fill="none" stroke="black" d="M730.93,-430.2C721.36,-424.06 710.25,-416.37 701,-408.43 692.79,-401.39 684.55,-392.92 677.46,-385.08"/>
<polygon fill="black" stroke="black" points="680.03,-382.71 670.79,-377.53 674.79,-387.34 680.03,-382.71"/>
</g>
<!-- node2 -->
<g id="node11" class="node">
<title>node2</title>
<polygon fill="white" stroke="black" points="571.6,-243.05 573.98,-243.15 576.33,-243.3 578.65,-243.49 580.93,-243.74 583.16,-244.03 585.32,-244.36 587.42,-244.75 589.43,-245.18 591.36,-245.65 593.2,-246.16 594.94,-246.71 596.57,-247.31 598.1,-247.94 599.51,-248.61 600.8,-249.31 601.97,-250.04 603.02,-250.8 603.94,-251.59 604.74,-252.41 605.4,-253.25 605.95,-254.11 606.36,-254.99 606.65,-255.89 606.81,-256.8 606.86,-257.72 606.78,-258.65 606.6,-259.59 606.3,-260.53 605.89,-261.47 605.38,-262.41 604.78,-263.35 604.08,-264.28 603.3,-265.2 602.43,-266.11 601.48,-267.01 600.47,-267.89 599.39,-268.75 598.24,-269.59 597.04,-270.41 595.79,-271.2 594.49,-271.96 593.15,-272.69 591.77,-273.39 590.36,-274.06 588.92,-274.69 587.46,-275.29 585.97,-275.84 584.46,-276.35 582.94,-276.82 581.4,-277.25 579.84,-277.64 578.28,-277.97 576.71,-278.26 575.14,-278.51 573.56,-278.7 571.97,-278.85 570.38,-278.95 568.79,-279 567.21,-279 565.62,-278.95 564.03,-278.85 562.44,-278.7 560.86,-278.51 559.29,-278.26 557.72,-277.97 556.16,-277.64 554.6,-277.25 553.06,-276.82 551.54,-276.35 550.03,-275.84 548.54,-275.29 547.08,-274.69 545.64,-274.06 544.23,-273.39 542.85,-272.69 541.51,-271.96 540.21,-271.2 538.96,-270.41 537.76,-269.59 536.61,-268.75 535.53,-267.89 534.52,-267.01 533.57,-266.11 532.7,-265.2 531.92,-264.28 531.22,-263.35 530.62,-262.41 530.11,-261.47 529.7,-260.53 529.4,-259.59 529.22,-258.65 529.14,-257.72 529.19,-256.8 529.35,-255.89 529.64,-254.99 530.05,-254.11 530.6,-253.25 531.26,-252.41 532.06,-251.59 532.98,-250.8 534.03,-250.04 535.2,-249.31 536.49,-248.61 537.9,-247.94 539.43,-247.31 541.06,-246.71 542.8,-246.16 544.64,-245.65 546.57,-245.18 548.58,-244.75 550.68,-244.36 552.84,-244.03 555.07,-243.74 557.35,-243.49 559.67,-243.3 562.02,-243.15 564.4,-243.05 566.8,-243 569.2,-243 571.6,-243.05"/>
<text text-anchor="middle" x="568" y="-257.9" font-family="Times New Roman,serif" font-size="12.00">Qt5::moc</text>
</g>
<!-- node0&#45;&gt;node2 -->
<g id="edge17" class="edge">
<title>node0&#45;&gt;node2</title>
<path fill="none" stroke="black" d="M718.24,-437.55C688.12,-430.77 645.22,-416.83 618,-389.43 590.67,-361.93 577.87,-317.72 572.18,-289.27"/>
<polygon fill="black" stroke="black" points="575.58,-288.41 570.33,-279.21 568.69,-289.68 575.58,-288.41"/>
</g>
<!-- node3 -->
<g id="node12" class="node">
<title>node3</title>
<polygon fill="white" stroke="black" points="709.72,-266.56 667,-279 624.28,-266.56 640.6,-246.44 693.4,-246.44 709.72,-266.56"/>
<text text-anchor="middle" x="667" y="-257.9" font-family="Times New Roman,serif" font-size="12.00">Qt::Core</text>
</g>
<!-- node0&#45;&gt;node3 -->
<g id="edge19" class="edge">
<title>node0&#45;&gt;node3</title>
<path fill="none" stroke="black" d="M744.91,-426.37C729.56,-393.97 696.15,-323.51 678.49,-286.23"/>
<polygon fill="black" stroke="black" points="681.6,-284.63 674.15,-277.09 675.27,-287.62 681.6,-284.63"/>
</g>
<!-- node5 -->
<g id="node14" class="node">
<title>node5</title>
<polygon fill="white" stroke="black" points="808.16,-266.56 768,-279 727.84,-266.56 743.18,-246.44 792.82,-246.44 808.16,-266.56"/>
<text text-anchor="middle" x="768" y="-257.9" font-family="Times New Roman,serif" font-size="12.00">Qt::Qml</text>
</g>
<!-- node0&#45;&gt;node5 -->
<g id="edge22" class="edge">
<title>node0&#45;&gt;node5</title>
<path fill="none" stroke="black" d="M754.41,-426.37C757.03,-394.73 762.64,-326.78 765.78,-288.9"/>
<polygon fill="black" stroke="black" points="769.29,-288.88 766.63,-278.63 762.31,-288.31 769.29,-288.88"/>
</g>
<!-- node8 -->
<g id="node17" class="node">
<title>node8</title>
<polygon fill="white" stroke="black" points="949.24,-341.77 951.38,-341.86 953.5,-342.01 955.59,-342.21 957.65,-342.45 959.65,-342.74 961.6,-343.08 963.48,-343.46 965.3,-343.89 967.04,-344.36 968.69,-344.88 970.26,-345.43 971.73,-346.03 973.1,-346.66 974.37,-347.32 975.54,-348.02 976.59,-348.76 977.54,-349.52 978.37,-350.31 979.08,-351.13 979.68,-351.97 980.17,-352.83 980.54,-353.71 980.8,-354.6 980.95,-355.51 980.99,-356.44 980.93,-357.37 980.76,-358.3 980.49,-359.25 980.12,-360.19 979.66,-361.13 979.12,-362.07 978.49,-363 977.78,-363.92 977,-364.83 976.15,-365.73 975.24,-366.61 974.26,-367.47 973.23,-368.31 972.15,-369.13 971.02,-369.92 969.86,-370.68 968.65,-371.41 967.41,-372.11 966.14,-372.78 964.84,-373.41 963.52,-374 962.18,-374.56 960.82,-375.07 959.45,-375.54 958.06,-375.97 956.67,-376.35 955.26,-376.69 953.85,-376.98 952.43,-377.23 951,-377.42 949.58,-377.57 948.15,-377.67 946.72,-377.72 945.28,-377.72 943.85,-377.67 942.42,-377.57 941,-377.42 939.57,-377.23 938.15,-376.98 936.74,-376.69 935.33,-376.35 933.94,-375.97 932.55,-375.54 931.18,-375.07 929.82,-374.56 928.48,-374 927.16,-373.41 925.86,-372.78 924.59,-372.11 923.35,-371.41 922.14,-370.68 920.98,-369.92 919.85,-369.13 918.77,-368.31 917.74,-367.47 916.76,-366.61 915.85,-365.73 915,-364.83 914.22,-363.92 913.51,-363 912.88,-362.07 912.34,-361.13 911.88,-360.19 911.51,-359.25 911.24,-358.3 911.07,-357.37 911.01,-356.44 911.05,-355.51 911.2,-354.6 911.46,-353.71 911.83,-352.83 912.32,-351.97 912.92,-351.13 913.63,-350.31 914.46,-349.52 915.41,-348.76 916.46,-348.02 917.63,-347.32 918.9,-346.66 920.27,-346.03 921.74,-345.43 923.31,-344.88 924.96,-344.36 926.7,-343.89 928.52,-343.46 930.4,-343.08 932.35,-342.74 934.35,-342.45 936.41,-342.21 938.5,-342.01 940.62,-341.86 942.76,-341.77 944.92,-341.72 947.08,-341.72 949.24,-341.77"/>
<text text-anchor="middle" x="946" y="-356.62" font-family="Times New Roman,serif" font-size="12.00">Qt5::rcc</text>
</g>
<!-- node0&#45;&gt;node8 -->
<g id="edge18" class="edge">
<title>node0&#45;&gt;node8</title>
<path fill="none" stroke="black" d="M783.53,-434.64C814.26,-425.27 862.61,-409.1 902,-389.43 907.78,-386.55 913.74,-383.06 919.33,-379.52"/>
<polygon fill="black" stroke="black" points="921.29,-382.42 927.72,-374 917.44,-376.57 921.29,-382.42"/>
</g>
<!-- node9 -->
<g id="node18" class="node">
<title>node9</title>
<polygon fill="white" stroke="black" points="893.11,-365.28 837,-377.72 780.89,-365.28 802.32,-345.15 871.68,-345.15 893.11,-365.28"/>
<text text-anchor="middle" x="837" y="-356.62" font-family="Times New Roman,serif" font-size="12.00">Qt::Network</text>
</g>
<!-- node0&#45;&gt;node9 -->
<g id="edge21" class="edge">
<title>node0&#45;&gt;node9</title>
<path fill="none" stroke="black" d="M769.6,-427.09C782.67,-414.22 801,-396.17 815.24,-382.14"/>
<polygon fill="black" stroke="black" points="818.01,-384.33 822.68,-374.82 813.1,-379.34 818.01,-384.33"/>
</g>
<!-- node10 -->
<g id="node19" class="node">
<title>node10</title>
<polygon fill="white" stroke="black" points="1135.24,-348.93 1135.24,-370.51 1095.26,-385.76 1038.74,-385.76 998.76,-370.51 998.76,-348.93 1038.74,-333.67 1095.26,-333.67 1135.24,-348.93"/>
<text text-anchor="middle" x="1067" y="-363.12" font-family="Times New Roman,serif" font-size="12.00">spdlog</text>
<text text-anchor="middle" x="1067" y="-350.12" font-family="Times New Roman,serif" font-size="12.00">(spdlog::spdlog)</text>
</g>
<!-- node0&#45;&gt;node10 -->
<g id="edge24" class="edge">
<title>node0&#45;&gt;node10</title>
<path fill="none" stroke="black" d="M787.91,-436.99C834.47,-428.05 919.24,-410.59 990,-389.43 996.95,-387.36 1004.19,-384.97 1011.31,-382.48"/>
<polygon fill="black" stroke="black" points="1012.69,-385.7 1020.92,-379.04 1010.33,-379.11 1012.69,-385.7"/>
</g>
<!-- node1&#45;&gt;node2 -->
<g id="edge8" class="edge">
<title>node1&#45;&gt;node2</title>
<path fill="none" stroke="black" d="M642.3,-342.75C627.83,-327.02 605.58,-302.84 589.2,-285.03"/>
<polygon fill="black" stroke="black" points="591.48,-282.34 582.13,-277.36 586.33,-287.08 591.48,-282.34"/>
</g>
<!-- node1&#45;&gt;node3 -->
<g id="edge10" class="edge">
<title>node1&#45;&gt;node3</title>
<path fill="none" stroke="black" d="M658.79,-341.43C660.29,-326.9 662.46,-305.88 664.2,-289.11"/>
<polygon fill="black" stroke="black" points="667.71,-289.12 665.26,-278.82 660.75,-288.4 667.71,-289.12"/>
</g>
<!-- node1&#45;&gt;node5 -->
<g id="edge15" class="edge">
<title>node1&#45;&gt;node5</title>
<path fill="none" stroke="black" d="M673.86,-344.03C693.11,-327.25 724.68,-299.75 745.89,-281.26"/>
<polygon fill="black" stroke="black" points="748.23,-283.87 753.47,-274.66 743.63,-278.59 748.23,-283.87"/>
</g>
<!-- node4 -->
<g id="node13" class="node">
<title>node4</title>
<polygon fill="white" stroke="black" points="768.14,-14.54 768.14,-29.46 744.04,-40 709.96,-40 685.86,-29.46 685.86,-14.54 709.96,-4 744.04,-4 768.14,-14.54"/>
<polygon fill="none" stroke="black" points="772.12,-11.92 772.12,-32.08 744.87,-44 709.13,-44 681.88,-32.08 681.88,-11.92 709.13,0 744.87,0 772.12,-11.92"/>
<text text-anchor="middle" x="727" y="-18.9" font-family="Times New Roman,serif" font-size="12.00">Qt5::Core</text>
</g>
<!-- node3&#45;&gt;node4 -->
<g id="edge9" class="edge">
<title>node3&#45;&gt;node4</title>
<path fill="none" stroke="black" stroke-dasharray="5,2" d="M670.49,-246.23C679.89,-209.09 705.95,-106.14 719.14,-54.05"/>
<polygon fill="black" stroke="black" points="722.54,-54.89 721.6,-44.34 715.75,-53.18 722.54,-54.89"/>
</g>
<!-- node6 -->
<g id="node15" class="node">
<title>node6</title>
<polygon fill="white" stroke="black" points="805.14,-176.54 805.14,-191.46 782.21,-202 749.79,-202 726.86,-191.46 726.86,-176.54 749.79,-166 782.21,-166 805.14,-176.54"/>
<polygon fill="none" stroke="black" points="809.12,-173.98 809.12,-194.02 783.08,-206 748.92,-206 722.88,-194.02 722.88,-173.98 748.92,-162 783.08,-162 809.12,-173.98"/>
<text text-anchor="middle" x="766" y="-180.9" font-family="Times New Roman,serif" font-size="12.00">Qt5::Qml</text>
</g>
<!-- node5&#45;&gt;node6 -->
<g id="edge14" class="edge">
<title>node5&#45;&gt;node6</title>
<path fill="none" stroke="black" stroke-dasharray="5,2" d="M767.63,-246.24C767.41,-237.81 767.11,-226.65 766.83,-216.17"/>
<polygon fill="black" stroke="black" points="770.33,-215.94 766.56,-206.04 763.33,-216.13 770.33,-215.94"/>
</g>
<!-- node6&#45;&gt;node4 -->
<g id="edge11" class="edge">
<title>node6&#45;&gt;node4</title>
<path fill="none" stroke="black" d="M757.83,-161.75C753.86,-150.87 749.26,-137.36 746,-125 739.81,-101.57 734.88,-74.59 731.59,-54.27"/>
<polygon fill="black" stroke="black" points="735.04,-53.64 730.03,-44.3 728.12,-54.72 735.04,-53.64"/>
</g>
<!-- node7 -->
<g id="node16" class="node">
<title>node7</title>
<polygon fill="white" stroke="black" points="865.12,-95.54 865.12,-110.46 834,-121 790,-121 758.88,-110.46 758.88,-95.54 790,-85 834,-85 865.12,-95.54"/>
<polygon fill="none" stroke="black" points="869.11,-92.67 869.11,-113.33 834.66,-125 789.34,-125 754.89,-113.33 754.89,-92.67 789.34,-81 834.66,-81 869.11,-92.67"/>
<text text-anchor="middle" x="812" y="-99.9" font-family="Times New Roman,serif" font-size="12.00">Qt5::Network</text>
</g>
<!-- node6&#45;&gt;node7 -->
<g id="edge13" class="edge">
<title>node6&#45;&gt;node7</title>
<path fill="none" stroke="black" d="M778.33,-161.83C783.28,-153.33 789.07,-143.37 794.45,-134.14"/>
<polygon fill="black" stroke="black" points="797.63,-135.63 799.64,-125.23 791.58,-132.11 797.63,-135.63"/>
</g>
<!-- node7&#45;&gt;node4 -->
<g id="edge12" class="edge">
<title>node7&#45;&gt;node4</title>
<path fill="none" stroke="black" d="M789.22,-80.83C778.83,-71.17 766.42,-59.64 755.43,-49.42"/>
<polygon fill="black" stroke="black" points="757.8,-46.85 748.09,-42.6 753.03,-51.97 757.8,-46.85"/>
</g>
<!-- node9&#45;&gt;node7 -->
<g id="edge20" class="edge">
<title>node9&#45;&gt;node7</title>
<path fill="none" stroke="black" stroke-dasharray="5,2" d="M835.7,-344.88C832.66,-312.76 824.86,-230.62 818,-162 817.13,-153.33 816.17,-143.94 815.28,-135.29"/>
<polygon fill="black" stroke="black" points="818.74,-134.79 814.23,-125.21 811.78,-135.52 818.74,-134.79"/>
</g>
<!-- node11 -->
<g id="node20" class="node">
<title>node11</title>
<polygon fill="white" stroke="black" points="1295.07,-266.56 1223,-279 1150.93,-266.56 1178.46,-246.44 1267.54,-246.44 1295.07,-266.56"/>
<text text-anchor="middle" x="1223" y="-257.9" font-family="Times New Roman,serif" font-size="12.00">Threads::Threads</text>
</g>
<!-- node10&#45;&gt;node11 -->
<g id="edge23" class="edge">
<title>node10&#45;&gt;node11</title>
<path fill="none" stroke="black" d="M1102.79,-336.53C1129.99,-319.67 1166.98,-296.73 1192.72,-280.77"/>
<polygon fill="black" stroke="black" points="1194.67,-283.68 1201.32,-275.44 1190.98,-277.74 1194.67,-283.68"/>
</g>
<!-- node12 -->
<g id="node21" class="node">
<title>node12</title>
<polygon fill="white" stroke="black" points="1415.21,-368.97 1284,-389.65 1152.79,-368.97 1202.91,-335.5 1365.09,-335.5 1415.21,-368.97"/>
<text text-anchor="middle" x="1284" y="-363.12" font-family="Times New Roman,serif" font-size="12.00">spdlog_header_only</text>
<text text-anchor="middle" x="1284" y="-350.12" font-family="Times New Roman,serif" font-size="12.00">(spdlog::spdlog_header_only)</text>
</g>
<!-- node12&#45;&gt;node11 -->
<g id="edge25" class="edge">
<title>node12&#45;&gt;node11</title>
<path fill="none" stroke="black" stroke-dasharray="5,2" d="M1269.23,-335.3C1259.83,-320.4 1247.68,-301.13 1238.2,-286.1"/>
<polygon fill="black" stroke="black" points="1240.98,-283.95 1232.68,-277.36 1235.06,-287.68 1240.98,-283.95"/>
</g>
</g>
</svg>
